<?xml version="1.0" ?><svg viewBox="0 0 32 32" xmlns="http://www.w3.org/2000/svg"><defs><style>.cls-h1{fill:#fef3c7;}.cls-h2{fill:#f7931a;}.cls-h3{fill:#fff;}</style></defs><g id="halving"><circle class="cls-h1" cx="16" cy="16" r="16"/><path class="cls-h2" d="M22,4H10a1,1,0,0,0-1,1V8a1,1,0,0,0,.29.71l5,5a1,1,0,0,1,0,1.41l-5,5A1,1,0,0,0,9,21v6a1,1,0,0,0,1,1H22a1,1,0,0,0,1-1V21a1,1,0,0,0-.29-.71l-5-5a1,1,0,0,1,0-1.41l5-5A1,1,0,0,0,23,8V5A1,1,0,0,0,22,4Z"/><path class="cls-h3" d="M11,7v0.59l5,5,5-5V7Zm5,11.41-5,5V25h10v-1.59ZM18,22H14a1,1,0,0,1,0-2h4a1,1,0,0,1,0,2Z"/></g></svg>
