<?xml version="1.0" ?><svg id="Layer_1" style="enable-background:new 0 0 512 512;" version="1.1" viewBox="0 0 512 512" xml:space="preserve" xmlns="http://www.w3.org/2000/svg" xmlns:xlink="http://www.w3.org/1999/xlink"><style type="text/css">
	.st0{fill:#CDD3D9;}
	.st1{fill:#FB8A52;}
	.st2{fill:#BB0D48;}
	.st3{fill:#5CB8CD;}
	.st4{fill:#152D39;}
	.st5{fill:#CCCECE;}
</style><g id="XMLID_3284_"><g id="XMLID_3285_"><path class="st0" d="M353.5,235l-64.8-9.4l-29-58.7l-29,58.7l-64.8,9.4l46.9,45.7l-11.1,64.6l58-30.5l58,30.5    l-11.1-64.6L353.5,235z M259.7,295.8l-39.1,20.6l7.5-43.6l-31.7-30.9l43.7-6.4l19.6-39.6l19.6,39.6l43.7,6.4l-31.7,30.9l7.5,43.6    L259.7,295.8z" id="XMLID_3286_"/><path class="st1" d="M193.6,115.1l-64.8-9.4l-29-58.7l-29,58.7L6,115.1l46.9,45.7l-11.1,64.6l58-30.5l58,30.5    l-11.1-64.6L193.6,115.1z M99.8,175.8l-39.1,20.6l7.5-43.6l-31.7-30.9l43.7-6.4l19.6-39.6l19.6,39.6l43.7,6.4l-31.7,30.9l7.5,43.6    L99.8,175.8z" id="XMLID_3289_"/><path class="st2" d="M193.6,354.8l-64.8-9.4l-29-58.7l-29,58.7L6,354.8l46.9,45.7l-11.1,64.6l58-30.5l58,30.5    l-11.1-64.6L193.6,354.8z M99.8,415.5l-39.1,20.6l7.5-43.6l-31.7-30.9l43.7-6.4l19.6-39.6l19.6,39.6l43.7,6.4l-31.7,30.9l7.5,43.6    L99.8,415.5z" id="XMLID_3292_"/><path class="st3" d="M506,115.1l-64.8-9.4l-29-58.7l-29,58.7l-64.8,9.4l46.9,45.7l-11.1,64.6l58-30.5l58,30.5    l-11.1-64.6L506,115.1z M412.2,175.8l-39.1,20.6l7.5-43.6l-31.7-30.9l43.7-6.4l19.6-39.6l19.6,39.6l43.7,6.4l-31.7,30.9l7.5,43.6    L412.2,175.8z" id="XMLID_3295_"/><path class="st4" d="M506,354.8l-64.8-9.4l-29-58.7l-29,58.7l-64.8,9.4l46.9,45.7l-11.1,64.6l58-30.5l58,30.5    l-11.1-64.6L506,354.8z M412.2,415.5l-39.1,20.6l7.5-43.6l-31.7-30.9l43.7-6.4l19.6-39.6l19.6,39.6l43.7,6.4l-31.7,30.9l7.5,43.6    L412.2,415.5z" id="XMLID_3298_"/></g><g id="XMLID_3301_"><path class="st1" d="M101.5,151.6h-5v-20.7h-5.2V127l10.2-0.9V151.6z" id="XMLID_3306_"/></g><g id="XMLID_3308_"><path class="st3" d="M423.1,150.4h-16.8v-3.3l7.8-8.8c1.2-1.4,2-2.5,2.5-3.5c0.5-0.9,0.7-1.8,0.7-2.6    c0-1-0.3-1.9-0.8-2.5c-0.5-0.6-1.3-0.9-2.3-0.9c-1.1,0-1.9,0.4-2.5,1.2c-0.6,0.8-0.9,1.8-0.9,3h-4.9l0-0.1    c-0.1-2.2,0.7-4.1,2.2-5.7c1.5-1.5,3.6-2.3,6.2-2.3c2.6,0,4.6,0.7,6,2c1.4,1.3,2.1,3.1,2.1,5.3c0,1.5-0.4,2.9-1.2,4.1    c-0.8,1.2-2.2,3-4.1,5.2l-4.1,5l0,0.1h10.3V150.4z" id="XMLID_3309_"/></g><g id="XMLID_3311_"><path class="st4" d="M413,376.9c1.2,0,2.1-0.3,2.6-0.9c0.6-0.6,0.9-1.5,0.9-2.6c0-0.9-0.3-1.7-0.9-2.3    c-0.6-0.6-1.4-0.9-2.5-0.9c-0.9,0-1.7,0.3-2.3,0.8c-0.6,0.6-0.9,1.3-0.9,2.1h-4.8l0-0.1c-0.1-1.9,0.7-3.5,2.2-4.8    c1.6-1.3,3.5-1.9,5.8-1.9c2.6,0,4.6,0.6,6.1,1.8c1.5,1.2,2.3,2.9,2.3,5.2c0,1.1-0.3,2.2-1,3.1c-0.7,0.9-1.5,1.7-2.7,2.2    c1.3,0.5,2.3,1.2,3,2.2c0.7,1,1.1,2.2,1.1,3.6c0,2.3-0.8,4-2.5,5.3c-1.6,1.3-3.7,1.9-6.3,1.9c-2.3,0-4.2-0.6-5.9-1.8    c-1.7-1.2-2.5-2.9-2.4-5.2l0-0.1h4.8c0,0.9,0.3,1.7,1,2.3c0.7,0.6,1.5,0.9,2.5,0.9c1.1,0,2.1-0.3,2.8-1c0.7-0.7,1.1-1.5,1.1-2.5    c0-1.3-0.3-2.3-1-2.9c-0.7-0.6-1.6-0.9-2.9-0.9h-2.7v-3.7H413z" id="XMLID_3312_"/></g><g id="XMLID_3314_"><path class="st2" d="M103.3,381.3h2.9v4h-2.9v5.5h-5.1v-5.5H87.8l-0.2-3.1l10.6-16.9h5.2V381.3z M92.2,381.3h6    v-9.3l-0.1,0l-0.5,1.1L92.2,381.3z" id="XMLID_3320_"/></g><g id="XMLID_3329_"><g id="XMLID_52_"><g id="XMLID_53_"><g id="XMLID_54_"><path class="st5" d="M251.7,257.4l1.4-14h14v4h-9.9l-0.7,5.9c0.5-0.3,1.1-0.6,1.8-0.9c0.7-0.2,1.5-0.3,2.3-0.4       c2.3,0,4.1,0.7,5.4,2.2c1.3,1.5,1.9,3.5,1.9,6.2c0,2.5-0.7,4.5-2.1,6.1c-1.4,1.6-3.5,2.4-6.4,2.4c-2.3,0-4.3-0.6-5.9-1.8       c-1.6-1.2-2.4-2.9-2.4-5l0-0.1l4.8-0.2c0,1,0.3,1.9,0.9,2.4c0.6,0.6,1.5,0.9,2.5,0.9c1.2,0,2.1-0.4,2.6-1.2       c0.5-0.8,0.8-1.9,0.8-3.3c0-1.4-0.3-2.6-0.9-3.5c-0.6-0.9-1.5-1.3-2.7-1.3c-1,0-1.7,0.2-2.2,0.5c-0.5,0.4-0.9,0.8-1.1,1.4       L251.7,257.4z" id="XMLID_55_"/></g></g></g></g></g></svg>